<svg width="124" height="42" viewBox="0 0 124 42" fill="none" xmlns="http://www.w3.org/2000/svg">
<path d="M35.375 41.5625C32.5208 41.5625 30.2812 41.0938 28.6562 40.1562C26.9062 39.1771 25.9583 37.7917 25.8125 36L25.5312 33.0625C27.4479 32.6042 29.0625 31.4167 30.375 29.5C30.7292 28.9583 30.9062 28.4896 30.9062 28.0938C30.9062 27.5521 30.6354 27.2812 30.0938 27.2812H30C29.9792 27.3021 29.9375 27.3125 29.875 27.3125C28.4167 30.375 26.0521 31.9062 22.7812 31.9062C21.1146 31.9062 19.6875 31.5417 18.5 30.8125C17.3333 30.0833 16.2604 28.8229 15.2812 27.0312H15.0938C14.5312 27.0312 14.25 27.2708 14.25 27.75C14.25 28.0833 14.375 28.4583 14.625 28.875C15.4583 30.2708 16.5 31.3646 17.75 32.1562C18.7292 32.8229 19.7604 33.2188 20.8438 33.3438L20.5938 39.25C19.3438 40.0625 18.0208 40.6458 16.625 41C15.25 41.375 13.2812 41.5625 10.7188 41.5625C8.17708 41.5625 5.90625 41.0625 3.90625 40.0625C1.44792 38.8333 0.21875 37.125 0.21875 34.9375C0.21875 32.2083 0.760417 25.4688 1.84375 14.7188C2.42708 9.11458 2.89583 5.19792 3.25 2.96875C5.39583 1.05208 8.5625 0.09375 12.75 0.09375C15.7917 0.09375 18.3125 0.65625 20.3125 1.78125L22.0312 7.53125L20.9375 12.125C20.8542 12.4375 20.8125 12.7396 20.8125 13.0312C20.8125 13.7604 21.2292 14.1354 22.0625 14.1562L25.0312 1.8125C25.8854 1.35417 27 0.958333 28.375 0.625C29.75 0.270833 31.25 0.09375 32.875 0.09375C35.9167 0.09375 38.1667 0.614583 39.625 1.65625C41.1042 2.67708 41.9792 4.40625 42.25 6.84375C42.3125 7.30208 42.4062 8.0625 42.5312 9.125C44.4271 25.4167 45.375 35.0104 45.375 37.9062C43.0625 40.3438 39.7292 41.5625 35.375 41.5625ZM63.0625 23.5938V29.0625C63.2083 29.2083 63.4479 29.2812 63.7812 29.2812C64.1146 29.2812 64.3542 29.1667 64.5 28.9375C64.6458 28.7083 64.7188 28.3125 64.7188 27.75V23.2812C64.7188 21.2812 64.6354 19.9583 64.4688 19.3125C64.3021 18.6458 63.9896 18.3125 63.5312 18.3125C63.2396 18.3125 62.9896 18.4167 62.7812 18.625C62.9688 20.6875 63.0625 22.3438 63.0625 23.5938ZM51.375 37.4375C47.9583 34.1458 46.25 29.6875 46.25 24.0625C46.25 18.4167 47.8542 13.9688 51.0625 10.7188C54.2917 7.44792 58.5208 5.8125 63.75 5.8125C68.9792 5.8125 73.2083 7.51042 76.4375 10.9062C79.6458 14.3021 81.25 18.7292 81.25 24.1875C81.25 29.625 79.6979 33.9479 76.5938 37.1562C73.5104 40.3646 69.3125 41.9688 64 41.9688C58.6875 41.9688 54.4792 40.4583 51.375 37.4375ZM102.281 20.4688C102.448 20.6354 102.708 20.7188 103.062 20.7188C103.417 20.7188 103.719 20.6458 103.969 20.5C103.427 17.3333 103.062 15.4583 102.875 14.875C102.646 14.2708 102.302 13.9688 101.844 13.9688C101.635 13.9688 101.385 14.0312 101.094 14.1562L102.281 20.4688ZM96.0938 29.8438C95.8854 30.1354 95.7812 30.4062 95.7812 30.6562C95.7812 31.2604 96.3438 31.7708 97.4688 32.1875C98.6146 32.5833 100 32.8333 101.625 32.9375C101.896 35.9375 102.188 37.6458 102.5 38.0625C102.104 38.8333 101.01 39.6146 99.2188 40.4062C97.4271 41.1771 95.4062 41.5625 93.1562 41.5625C90.1771 41.5625 87.625 40.9271 85.5 39.6562C83.375 38.3646 82.3125 36.7083 82.3125 34.6875C82.3125 34.1458 82.3646 33.6667 82.4688 33.25L89.125 3.5C90.7917 2.4375 92.7812 1.60417 95.0938 1C97.4062 0.395833 99.8125 0.09375 102.312 0.09375C105.896 0.09375 108.958 0.697917 111.5 1.90625C114.396 3.28125 116.156 5.27083 116.781 7.875L123.906 37.3438C121.74 40.1562 118.208 41.5625 113.312 41.5625C110.938 41.5625 108.927 41.1354 107.281 40.2812C105.635 39.4271 104.677 38.2083 104.406 36.625L103.719 32.8125C104.969 32.7917 106.177 32.5521 107.344 32.0938C108.51 31.6354 109.094 31.1562 109.094 30.6562C109.094 30.3229 108.958 30.0521 108.688 29.8438C107.896 30.4062 106.927 30.8333 105.781 31.125C104.635 31.4167 103.573 31.5625 102.594 31.5625C99.7812 31.5625 97.6146 30.9896 96.0938 29.8438Z" fill="black"/>
</svg>
