<svg width="76" height="37" viewBox="0 0 76 37" fill="none" xmlns="http://www.w3.org/2000/svg">
<path d="M0 24V0.399999H3.6V24H0ZM4.8 24V0.399999H8.4V24H4.8ZM9.6 24V0.399999H10.8V24H9.6ZM12 24V0.399999H13.2V24H12ZM16.8 24V0.399999H18V24H16.8ZM6.48 27.48H7.32L9.6 32.04L11.92 27.48H12.72V36.76H11.72V29.76L9.72 33.52H9.32L7.44 29.8V36.76H6.48V27.48ZM19.2188 24V0.399999H20.4188V24H19.2188ZM24.0188 24V0.399999H25.2188V24H24.0188ZM26.4188 24V0.399999H27.6188V24H26.4188ZM31.2188 24V0.399999H32.4188V24H31.2188ZM36.0188 24V0.399999H37.2188V24H36.0188ZM38.4188 24V0.399999H42.0188V24H38.4188ZM43.2188 24V0.399999H44.4188V24H43.2188ZM45.6188 24V0.399999H49.2188V24H45.6188ZM50.4188 24V0.399999H51.6188V24H50.4188ZM55.2188 24V0.399999H56.4188V24H55.2188ZM38.4188 36.88C37.8054 36.88 37.2588 36.7333 36.7788 36.44C36.3254 36.1467 35.9654 35.7333 35.6988 35.2C35.4054 34.6667 35.2588 34.0533 35.2588 33.36C35.2588 32.6667 35.4054 32.0533 35.6988 31.52C35.9654 30.9867 36.3254 30.5733 36.7788 30.28C37.2588 29.96 37.8054 29.8 38.4188 29.8C39.0321 29.8 39.5654 29.96 40.0188 30.28C40.4988 30.5733 40.8721 30.9867 41.1388 31.52C41.4054 32.0533 41.5388 32.6667 41.5388 33.36C41.5388 34.0533 41.4054 34.6667 41.1388 35.2C40.8721 35.7333 40.4988 36.1467 40.0188 36.44C39.5654 36.7333 39.0321 36.88 38.4188 36.88ZM38.4188 36C38.7921 36 39.1388 35.88 39.4588 35.64C39.7521 35.4267 39.9921 35.12 40.1788 34.72C40.3388 34.2933 40.4188 33.8267 40.4188 33.32C40.4188 32.5467 40.2321 31.92 39.8588 31.44C39.4854 30.96 39.0054 30.72 38.4188 30.72C37.8321 30.72 37.3521 30.96 36.9788 31.44C36.6054 31.92 36.4188 32.5467 36.4188 33.32C36.4188 33.8267 36.4988 34.2933 36.6588 34.72C36.8454 35.12 37.0854 35.4267 37.3788 35.64C37.6721 35.88 38.0188 36 38.4188 36ZM57.6172 24V0.399999H61.2172V24H57.6172ZM62.4172 24V0.399999H63.6172V24H62.4172ZM64.8172 24V0.399999H66.0172V24H64.8172ZM69.6172 24V0.399999H70.8172V24H69.6172ZM72.0172 24V0.399999H75.6172V24H72.0172ZM68.6972 34.04H65.6972L64.7772 36.76H63.7372L67.1372 27.32H67.2572L70.6972 36.76H69.6172L68.6972 34.04ZM68.4172 33.24L67.2172 29.72L65.9772 33.24H68.4172Z" fill="black"/>
</svg>
