<svg width="48" height="48" viewBox="0 0 48 48" fill="none" xmlns="http://www.w3.org/2000/svg">
<circle cx="24" cy="24" r="24" fill="white"/>
<path d="M32.2148 37.3691C30.3418 37.3691 28.8721 37.0615 27.8057 36.4463C26.6572 35.8037 26.0352 34.8945 25.9395 33.7188L25.7549 31.791C27.0127 31.4902 28.0723 30.7109 28.9336 29.4531C29.166 29.0977 29.2822 28.79 29.2822 28.5303C29.2822 28.1748 29.1045 27.9971 28.749 27.9971H28.6875C28.6738 28.0107 28.6465 28.0176 28.6055 28.0176C27.6484 30.0273 26.0967 31.0322 23.9502 31.0322C22.8564 31.0322 21.9199 30.793 21.1406 30.3145C20.375 29.8359 19.6709 29.0088 19.0283 27.833H18.9053C18.5361 27.833 18.3516 27.9902 18.3516 28.3047C18.3516 28.5234 18.4336 28.7695 18.5977 29.043C19.1445 29.959 19.8281 30.6768 20.6484 31.1963C21.291 31.6338 21.9678 31.8936 22.6787 31.9756L22.5146 35.8516C21.6943 36.3848 20.8262 36.7676 19.9102 37C19.0078 37.2461 17.7158 37.3691 16.0342 37.3691C14.3662 37.3691 12.876 37.041 11.5635 36.3848C9.9502 35.5781 9.14355 34.457 9.14355 33.0215C9.14355 31.2305 9.49902 26.8076 10.21 19.7529C10.5928 16.0752 10.9004 13.5049 11.1328 12.042C12.541 10.7842 14.6191 10.1553 17.3672 10.1553C19.3633 10.1553 21.0176 10.5244 22.3301 11.2627L23.458 15.0361L22.7402 18.0508C22.6855 18.2559 22.6582 18.4541 22.6582 18.6455C22.6582 19.124 22.9316 19.3701 23.4785 19.3838L25.4268 11.2832C25.9873 10.9824 26.7188 10.7227 27.6211 10.5039C28.5234 10.2715 29.5078 10.1553 30.5742 10.1553C32.5703 10.1553 34.0469 10.4971 35.0039 11.1807C35.9746 11.8506 36.5488 12.9854 36.7266 14.585C36.7676 14.8857 36.8291 15.3848 36.9111 16.082C38.1553 26.7734 38.7773 33.0693 38.7773 34.9697C37.2598 36.5693 35.0723 37.3691 32.2148 37.3691Z" fill="black"/>
</svg>
