<svg width="24" height="24" viewBox="0 0 24 24" fill="none" xmlns="http://www.w3.org/2000/svg">
<path d="M15.8753 5.15273C14.2477 5.15273 12.8324 5.88672 12 7.11675C11.1676 5.88672 9.75229 5.15273 8.12465 5.15273C6.89173 5.15417 5.70971 5.64458 4.8379 6.51639C3.96609 7.3882 3.47568 8.57021 3.47424 9.80314C3.47424 12.0663 4.88487 14.4218 7.66736 16.8028C8.94238 17.8892 10.3197 18.8496 11.7799 19.6705C11.8475 19.7069 11.9232 19.7259 12 19.7259C12.0768 19.7259 12.1524 19.7069 12.2201 19.6705C13.6803 18.8496 15.0576 17.8892 16.3326 16.8028C19.1151 14.4218 20.5257 12.0663 20.5257 9.80314C20.5243 8.57021 20.0339 7.3882 19.1621 6.51639C18.2903 5.64458 17.1082 5.15417 15.8753 5.15273Z" stroke="#FF4343"/>
</svg>
