<svg width="30" height="30" viewBox="0 0 30 30" fill="none" xmlns="http://www.w3.org/2000/svg">
<path d="M23.75 3.75003H6.25C4.86929 3.75003 3.75 4.86932 3.75 6.25003V23.75C3.75 25.1307 4.86929 26.25 6.25 26.25H23.75C25.1307 26.25 26.25 25.1307 26.25 23.75V6.25003C26.25 4.86932 25.1307 3.75003 23.75 3.75003Z" stroke="#373737" stroke-width="1.5" stroke-linecap="round" stroke-linejoin="round"/>
<path d="M10.6249 12.5C11.6604 12.5 12.4999 11.6605 12.4999 10.625C12.4999 9.58947 11.6604 8.75 10.6249 8.75C9.58934 8.75 8.74988 9.58947 8.74988 10.625C8.74988 11.6605 9.58934 12.5 10.6249 12.5Z" stroke="#373737" stroke-width="1.5" stroke-linecap="round" stroke-linejoin="round"/>
<path d="M26.2501 18.75L20.0001 12.5L6.25012 26.25" stroke="#373737" stroke-width="1.5" stroke-linecap="round" stroke-linejoin="round"/>
</svg>
