<svg width="33" height="33" viewBox="0 0 33 33" fill="none" xmlns="http://www.w3.org/2000/svg">
<path d="M13.2916 29.3333C14.051 29.3333 14.6666 28.7177 14.6666 27.9583C14.6666 27.1989 14.051 26.5833 13.2916 26.5833C12.5322 26.5833 11.9166 27.1989 11.9166 27.9583C11.9166 28.7177 12.5322 29.3333 13.2916 29.3333Z" fill="#505050" stroke="#505050" stroke-width="2.0625" stroke-linecap="round" stroke-linejoin="round"/>
<path d="M26.125 29.3333C26.8844 29.3333 27.5 28.7177 27.5 27.9583C27.5 27.1989 26.8844 26.5833 26.125 26.5833C25.3656 26.5833 24.75 27.1989 24.75 27.9583C24.75 28.7177 25.3656 29.3333 26.125 29.3333Z" fill="#505050" stroke="#505050" stroke-width="2.0625" stroke-linecap="round" stroke-linejoin="round"/>
<path d="M2.75 2.74999H7.75L11.1 19.1151C11.2143 19.6778 11.5274 20.1833 11.9844 20.543C12.4415 20.9028 13.0134 21.0939 13.6 21.0829H25.75C26.3366 21.0939 26.9085 20.9028 27.3656 20.543C27.8226 20.1833 28.1357 19.6778 28.25 19.1151L30.25 8.86095H9" stroke="#505050" stroke-width="2.0625" stroke-linecap="round" stroke-linejoin="round"/>
</svg>
