<svg width="16" height="16" viewBox="0 0 16 16" fill="none" xmlns="http://www.w3.org/2000/svg">
<path d="M8 1C4.1325 1 1 4.21383 1 8.17773C1 11.3497 3.0055 14.0395 5.78625 14.9876C6.13625 15.0552 6.26458 14.8333 6.26458 14.6425C6.26458 14.472 6.25875 14.0204 6.25583 13.4223C4.30867 13.8553 3.898 12.4592 3.898 12.4592C3.5795 11.6308 3.11925 11.4095 3.11925 11.4095C2.48517 10.9645 3.16825 10.9735 3.16825 10.9735C3.87117 11.0237 4.24042 11.7128 4.24042 11.7128C4.86458 12.8104 5.879 12.4933 6.27917 12.3097C6.34217 11.8455 6.52242 11.5291 6.7225 11.3497C5.16792 11.1702 3.534 10.553 3.534 7.80269C3.534 7.01912 3.80525 6.37911 4.25442 5.87667C4.17567 5.69543 3.93942 4.9657 4.31567 3.97696C4.31567 3.97696 4.90192 3.78436 6.24067 4.71268C6.80067 4.55298 7.39567 4.47402 7.99067 4.47043C8.58567 4.47402 9.18067 4.55298 9.74067 4.71268C11.0707 3.78436 11.6569 3.97696 11.6569 3.97696C12.0332 4.9657 11.7969 5.69543 11.7269 5.87667C12.1732 6.37911 12.4444 7.01912 12.4444 7.80269C12.4444 10.5601 10.8082 11.1673 9.25067 11.3437C9.49567 11.559 9.72317 11.9993 9.72317 12.6716C9.72317 13.6322 9.71442 14.4038 9.71442 14.6371C9.71442 14.8255 9.83692 15.0498 10.1957 14.978C12.9962 14.0365 15 11.3449 15 8.17773C15 4.21383 11.8657 1 8 1Z" fill="#181717"/>
</svg>
