<svg width="33" height="33" viewBox="0 0 33 33" fill="none" xmlns="http://www.w3.org/2000/svg">
<path d="M27.7444 12.2568C29.7575 12.2568 30.9963 10.7083 30.9963 9.62433C30.9963 8.28226 31.0046 5.47418 30.9963 4.97872C30.9791 3.9403 29.2207 2.47518 28.3638 2.50106H24.0279M27.7444 12.2568C24.9528 12.2568 24.0279 9.93403 24.0279 9.93403M27.7444 12.2568V31.4587H31.5H15.8207M24.0279 9.93403V2.50106M24.0279 9.93403C21.5503 13.6505 18.1435 11.5858 16.7498 10.2437M24.0279 2.50106H16.7498M16.7498 2.50106V10.2437M16.7498 2.50106H9.16199M16.7498 10.2437C13.2811 13.8363 10.246 11.7407 9.16199 10.2437M9.16199 2.50106H4.51639C4.51639 2.50106 3.27754 2.65592 2.65813 3.43018C2.03871 4.20445 2.03871 4.97872 2.03871 4.97872C2.03871 4.97872 1.88386 9.62433 2.19357 10.2437C2.50327 10.8632 6.06492 13.5886 9.16199 10.2437M9.16199 2.50106V10.2437M2.03871 31.4587H5.60036M5.60036 31.4587V18.451C5.62922 17.4831 6.06492 17.2121 6.99404 16.9024C8.51783 16.3945 13.0333 16.283 14.7367 16.9024C15.6658 17.2403 15.8207 17.9864 15.8207 18.451V31.4587M5.60036 31.4587H15.8207" stroke="#494949" stroke-width="1.6"/>
</svg>
