<svg width="33" height="33" viewBox="0 0 33 33" fill="none" xmlns="http://www.w3.org/2000/svg">
<path d="M29.6471 16.4666C30.0045 16.1093 30.0045 15.5298 29.6471 15.1725L23.8234 9.34877C23.466 8.9914 22.8866 8.9914 22.5292 9.34877C22.1719 9.70614 22.1719 10.2856 22.5292 10.6429L27.7059 15.8195L22.5292 20.9962C22.1719 21.3535 22.1719 21.933 22.5292 22.2903C22.8866 22.6477 23.466 22.6477 23.8234 22.2903L29.6471 16.4666ZM17.9203 16.7347H29V14.9044H17.9203V16.7347Z" fill="#494949"/>
<path d="M15.5581 7.7309C16.0162 7.88198 16.5101 7.63303 16.6612 7.17487C16.8123 6.71671 16.5633 6.22282 16.1052 6.07175L15.5581 7.7309ZM3.72646 3.82958L15.5581 7.7309L16.1052 6.07175L4.27354 2.17042L3.72646 3.82958Z" fill="#494949"/>
<path d="M4 27.2186L15.9026 30.4097" stroke="#494949" stroke-width="1.74702" stroke-linecap="round"/>
<path d="M15.8315 7.1144L15.9381 30.1967" stroke="#494949" stroke-width="1.74702" stroke-linecap="round"/>
<path d="M4 3H21.7556" stroke="#494949" stroke-width="1.74702" stroke-linecap="round"/>
<path d="M21.7556 27.2186L21.7556 3" stroke="#494949" stroke-width="1.74702" stroke-linecap="round"/>
<path d="M4 27.2186L4 3" stroke="#494949" stroke-width="1.74702" stroke-linecap="round"/>
<path d="M16.1449 27.2186H21.7557" stroke="#494949" stroke-width="1.74702" stroke-linecap="round"/>
</svg>
